<svg width="24" height="24" viewBox="0 0 24 24" fill="none" xmlns="http://www.w3.org/2000/svg">
<path d="M11.5 14.5C13.1569 14.5 14.5 13.1569 14.5 11.5C14.5 9.84315 13.1569 8.5 11.5 8.5C9.84315 8.5 8.5 9.84315 8.5 11.5C8.5 13.1569 9.84315 14.5 11.5 14.5Z" stroke="#EF5B5B" stroke-linecap="round" stroke-linejoin="round"/>
<path d="M15 8.99953V12.7495C15 13.3463 15.2371 13.9186 15.659 14.3405C16.081 14.7625 16.6533 14.9995 17.25 14.9995C17.8467 14.9995 18.419 14.7625 18.841 14.3405C19.2629 13.9186 19.5 13.3463 19.5 12.7495V11.9995C19.4999 10.3068 18.9272 8.66389 17.875 7.33793C16.8227 6.01197 15.3529 5.08095 13.7045 4.69626C12.056 4.31156 10.326 4.49582 8.79552 5.21906C7.26508 5.9423 6.0243 7.162 5.27495 8.67982C4.5256 10.1976 4.31173 11.9243 4.66813 13.5791C5.02453 15.2339 5.93024 16.7195 7.23798 17.7942C8.54572 18.869 10.1786 19.4698 11.8711 19.4989C13.5635 19.528 15.2161 18.9837 16.56 17.9545" stroke="#EF5B5B" stroke-linecap="round" stroke-linejoin="round"/>
</svg>
