<svg width="21" height="21" viewBox="0 0 21 21" fill="none" xmlns="http://www.w3.org/2000/svg">
<g clip-path="url(#clip0_519_1603)">
<path d="M19.8408 3.71117e-08H1.15821C0.518463 0.000320472 -0.00016018 0.519264 3.71117e-08 1.15917V19.8418C0.000320472 20.4815 0.519264 21.0002 1.15917 21H19.8408C20.4809 21.0002 20.9998 20.4814 21 19.8413C21 19.8411 21 19.841 21 19.8408V1.15821C20.9997 0.518463 20.4807 -0.00016018 19.8408 3.71117e-08Z" fill="#4267B2"/>
<path d="M14.499 20.9999V12.8788H17.2368L17.647 9.70008H14.499V7.67558C14.499 6.75737 14.7539 6.13172 16.0706 6.13172H17.7393V3.29636C17.4489 3.25774 16.4529 3.17139 15.2939 3.17139C12.8739 3.17139 11.2178 4.64795 11.2178 7.36075V9.70008H8.49023V12.8788H11.2178V20.9999H14.499Z" fill="white"/>
</g>
<defs>
<clipPath id="clip0_519_1603">
<rect width="21" height="21" fill="white"/>
</clipPath>
</defs>
</svg>
