<svg width="21" height="21" viewBox="0 0 21 21" fill="none" xmlns="http://www.w3.org/2000/svg">
<path d="M4.65405 12.6903L3.92307 15.4192L1.25135 15.4757C0.452896 13.9947 0 12.3003 0 10.4998C0 8.7586 0.423446 7.11666 1.17403 5.6709H1.17461L3.55319 6.10698L4.59515 8.47129C4.37707 9.10707 4.25821 9.78957 4.25821 10.4998C4.25829 11.2705 4.39791 12.009 4.65405 12.6903Z" fill="#FBBB00"/>
<path d="M20.8168 8.53906C20.9374 9.17423 21.0003 9.8302 21.0003 10.5006C21.0003 11.2523 20.9212 11.9856 20.7707 12.6929C20.2595 15.0999 18.9239 17.2016 17.0737 18.6889L17.0732 18.6883L14.0772 18.5355L13.6532 15.8885C14.8809 15.1685 15.8403 14.0418 16.3457 12.6929H10.7311V8.53906H16.4276H20.8168Z" fill="#518EF8"/>
<path d="M17.0728 18.6875L17.0734 18.6881C15.274 20.1345 12.9882 20.9998 10.4999 20.9998C6.50123 20.9998 3.0247 18.7649 1.25122 15.4758L4.65392 12.6904C5.54064 15.057 7.82354 16.7416 10.4999 16.7416C11.6503 16.7416 12.728 16.4306 13.6528 15.8877L17.0728 18.6875Z" fill="#28B446"/>
<path d="M17.2022 2.4173L13.8006 5.20211C12.8435 4.60385 11.7122 4.25825 10.5001 4.25825C7.76312 4.25825 5.43753 6.02016 4.59523 8.47155L1.17465 5.67116H1.17407C2.92159 2.30193 6.44197 0 10.5001 0C13.0478 0 15.3837 0.907514 17.2022 2.4173Z" fill="#F14336"/>
</svg>
