<svg width="254" height="198" viewBox="0 0 254 198" fill="none" xmlns="http://www.w3.org/2000/svg">
<g style="mix-blend-mode:darken" opacity="0.76">
<path d="M1 100C-21.0914 100 -39 117.685 -39 139.5C-39 161.315 -21.0914 179 0.999996 179C23.0914 179 41 161.315 41 139.5C41 117.685 23.0914 100 1 100Z" fill="#F6D861"/>
</g>
<path opacity="0.76" d="M217.5 171C212.806 171 209 174.806 209 179.5C209 184.194 212.806 188 217.5 188C222.194 188 226 184.194 226 179.5C226 174.806 222.194 171 217.5 171Z" fill="#F6D861"/>
<circle opacity="0.76" cx="175" cy="79" r="79" fill="#F6D861"/>
<path d="M135.056 174.446C135.056 174.225 134.32 152.343 130.776 148.917C127.372 145.616 123.452 148.799 123.283 148.917L122.811 148.349C122.855 148.312 127.409 144.599 131.284 148.349C135.034 151.989 135.764 173.466 135.793 174.38L135.056 174.446Z" fill="#407BFF"/>
<path d="M135.388 178.763C135.285 177.688 132.949 152.431 142.476 141.49L143.036 141.976C133.693 152.667 136.073 178.424 136.125 178.682L135.388 178.763Z" fill="#407BFF"/>
<path d="M135.189 176.001L134.452 175.949C134.452 175.654 136.316 146.397 129.369 140.016L129.87 139.471C137.068 146.095 135.27 174.778 135.189 176.001Z" fill="#407BFF"/>
<path d="M136.125 175.979H135.388C135.388 175.168 135.617 156.137 141.054 153.021C141.578 152.682 142.175 152.475 142.795 152.414C143.415 152.354 144.041 152.443 144.62 152.674C147.921 154.045 149.549 159.887 149.615 160.13L148.879 160.329C148.879 160.27 147.28 154.582 144.318 153.359C143.839 153.165 143.321 153.091 142.807 153.144C142.293 153.196 141.8 153.374 141.371 153.662C136.324 156.557 136.125 175.816 136.125 175.979Z" fill="#407BFF"/>
<path d="M133.995 175.993L133.259 175.949C133.259 175.801 134.069 160.985 130.083 155.776C129.125 154.538 128.101 153.941 127.018 154.022C124.439 154.199 122.259 158.001 122.244 158.038L121.595 157.677C121.699 157.507 123.99 153.492 126.967 153.256C128.308 153.16 129.553 153.845 130.65 155.304C134.828 160.756 134.032 175.374 133.995 175.993Z" fill="#407BFF"/>
<path d="M134.695 178.027C134.592 176.553 132.08 142.661 136.515 136.634L137.105 137.076C132.831 142.86 135.41 177.599 135.432 177.968L134.695 178.027Z" fill="#407BFF"/>
<path d="M145.762 156.189C145.762 156.189 143.117 157.169 143.905 159.475C144.694 161.781 153.071 165.575 153.071 165.575C153.071 165.575 156.578 162.356 153.358 157.124C150.138 151.893 145.836 154.538 145.762 156.189Z" fill="#EF5B5B"/>
<path d="M134.246 151.797C134.246 151.797 137.068 151.68 137.193 154.111C137.318 156.542 131.115 163.291 131.115 163.291C131.115 163.291 126.635 161.678 127.593 155.607C128.551 149.536 133.539 150.302 134.246 151.797Z" fill="#EF5B5B"/>
<path d="M131.851 140.156C131.851 140.156 133.737 139.95 133.583 138.808C133.428 137.666 126.267 134.711 122.045 139.478C122.045 139.478 124.749 144.127 128.676 144.186C132.603 144.245 131.851 140.156 131.851 140.156Z" fill="#EF5B5B"/>
<path d="M135.388 137.371C135.388 137.371 133.686 138.196 133.178 137.143C132.669 136.089 137.222 129.775 143.33 131.61C143.33 131.61 143.492 136.988 140.206 139.11C136.92 141.232 135.388 137.371 135.388 137.371Z" fill="#EF5B5B"/>
<path d="M126.451 155.26C126.451 155.26 127.748 154.214 126.348 153.698C124.948 153.183 118.066 153.337 118 160.145C118 160.145 126.009 161.479 126.996 158.885C127.983 156.292 126.451 155.26 126.451 155.26Z" fill="#EF5B5B"/>
<path d="M142.756 139.987C142.756 139.987 141.452 138.934 142.859 138.425C144.266 137.917 151.133 138.057 151.207 144.872C151.207 144.872 143.198 146.198 142.203 143.605C141.209 141.011 142.756 139.987 142.756 139.987Z" fill="#EF5B5B"/>
<path d="M138.549 145.468C138.549 145.468 138.431 144.194 139.462 144.695C140.494 145.196 144.075 149.064 140.361 152.733C140.361 152.733 135.359 149.049 136.257 147.097C137.156 145.144 138.549 145.468 138.549 145.468Z" fill="#EF5B5B"/>
<path d="M125.287 147.288C125.287 147.288 126.068 146.272 124.926 146.146C123.784 146.021 118.7 147.377 119.916 152.461C119.916 152.461 126.119 151.996 126.384 149.882C126.65 147.767 125.287 147.288 125.287 147.288Z" fill="#EF5B5B"/>
<path d="M146.263 194.855H124.963L122.664 171.536H148.554L146.263 194.855Z" fill="#4E4D4D"/>
<path d="M149.696 168.964H121.529V174.107H149.696V168.964Z" fill="#407BFF"/>
<path opacity="0.2" d="M149.696 168.964H121.529V174.107H149.696V168.964Z" fill="white"/>
<path d="M238.905 16.281L207.268 15.9863C206.546 15.9765 205.858 15.681 205.354 15.1644C204.85 14.6479 204.571 13.9524 204.579 13.2307L204.881 3.68941C204.885 3.33238 204.959 2.9796 205.099 2.65122C205.239 2.32285 205.443 2.02529 205.698 1.77557C205.953 1.52585 206.255 1.32885 206.586 1.1958C206.918 1.06276 207.272 0.99627 207.629 1.00016L239.311 1.30224C240.032 1.31195 240.721 1.60751 241.225 2.12407C241.729 2.64064 242.008 3.33605 242 4.0578L241.698 13.5991C241.694 13.9596 241.618 14.3157 241.475 14.6466C241.332 14.9775 241.125 15.2766 240.865 15.5263C240.605 15.7761 240.298 15.9714 239.961 16.101C239.625 16.2306 239.266 16.2918 238.905 16.281Z" fill="#EF5B5B"/>
<path d="M222.623 13.8714C222.623 13.8714 218.614 22.7128 209.847 25.4168C209.847 25.4168 214.71 22.6907 214.459 13.3999L222.623 13.8714Z" fill="#EF5B5B"/>
<path d="M212.787 8.53008L213.523 8.94268L213.184 9.50999L212.448 9.05319V9.89312H211.799V9.05319L211.063 9.50999L210.731 8.94268L211.468 8.53008L210.731 8.11748L211.063 7.55017L211.799 8.00697V7.15967H212.448V8.00697L213.184 7.55017L213.523 8.11748L212.787 8.53008Z" fill="white"/>
<path d="M217.311 8.5299L218.047 8.9425L217.708 9.50981L216.972 9.05301V9.89294H216.323V9.05301L215.587 9.50981L215.255 8.97197L215.992 8.55937L215.255 8.14678L215.594 7.57946L216.331 8.03626V7.18896H216.979V8.03626L217.716 7.57946L218.055 8.14678L217.311 8.5299Z" fill="white"/>
<path d="M221.842 8.53008L222.578 8.94268L222.239 9.50999L221.503 9.05319V9.89312H220.847V9.05319L220.11 9.50999L219.779 8.94268L220.515 8.53008L219.779 8.11748L220.11 7.55017L220.847 8.00697V7.15967H221.503V8.00697L222.239 7.55017L222.578 8.11748L221.842 8.53008Z" fill="white"/>
<path d="M226.365 8.53008L227.102 8.94268L226.763 9.50999L226.026 9.05319V9.89312H225.378V9.05319L224.641 9.50999L224.31 8.94268L225.047 8.53008L224.31 8.11748L224.641 7.55017L225.378 8.00697V7.15967H226.026V8.00697L226.763 7.55017L227.102 8.11748L226.365 8.53008Z" fill="white"/>
<path d="M230.889 8.53008L231.626 8.94268L231.287 9.50999L230.55 9.05319V9.89312H229.902V9.05319L229.165 9.50999L228.826 8.94268L229.563 8.53008L228.826 8.11748L229.165 7.55017L229.902 8.00697V7.15967H230.55V8.00697L231.287 7.55017L231.626 8.11748L230.889 8.53008Z" fill="white"/>
<path d="M235.421 8.53008L236.158 8.94268L235.819 9.50999L235.082 9.05319V9.89312H234.411V9.05319L233.675 9.50999L233.343 8.94268L234.08 8.53008L233.343 8.11748L233.675 7.55017L234.411 8.00697V7.15967H235.067V8.00697L235.804 7.55017L236.143 8.11748L235.421 8.53008Z" fill="white"/>
<path d="M181.453 39.084C185.667 39.7397 189.756 52.7218 191.532 53.8196C193.308 54.9174 191.782 41.6627 191.782 41.6627L195.157 41.2133C195.157 41.2133 199.15 61.1947 193.322 61.0474C188.902 60.9368 183.597 53.5175 182.271 49.7378L181.453 39.084Z" fill="#FFC3BD"/>
<path opacity="0.1" d="M193.322 60.9963C190.633 60.93 187.62 58.1671 185.38 55.161C184.099 53.4911 183.063 51.648 182.3 49.6868L181.865 44.2346L181.453 39.0771C185.667 39.7329 189.756 52.7149 191.532 53.8127C193.308 54.9105 191.782 41.6559 191.782 41.6559L195.157 41.2064C195.157 41.2064 199.15 61.1437 193.322 60.9963Z" fill="black"/>
<path opacity="0.2" d="M185.38 55.1608C184.099 53.4909 183.063 51.6478 182.3 49.6865L181.865 44.2344C181.865 44.2344 186.463 48.8613 185.38 55.1608Z" fill="black"/>
<path d="M165.936 12.2359C165.936 12.2359 158.428 12.1475 158.789 22.4698C159.15 32.7921 166.371 32.9321 163.947 35.916C166.1 36.8291 168.416 37.2997 170.755 37.2997C173.094 37.2997 175.409 36.8291 177.562 35.916C177.562 35.916 176.229 35.3929 176.863 33.4994C177.496 31.6059 180.974 28.8945 181.283 24.9012C181.593 20.9078 173.702 11.2044 165.936 12.2359Z" fill="#4E4D4D"/>
<path d="M173.356 31.9965C173.356 31.9965 182.934 30.2208 181.335 21.1143C180.023 13.6507 176.538 11.2562 173.356 10.1878C171.985 9.72599 170.5 9.72513 169.129 10.1854C167.757 10.6456 166.574 11.5417 165.759 12.7371C165.759 12.7371 159.261 10.8951 160.388 21.5784C161.515 32.2617 168.574 36.874 173.356 31.9965Z" fill="#4E4D4D"/>
<path d="M190.817 184.591L186.559 182.41L188.106 176.044L189.535 170.216L194.899 171.97L192.74 178.652L190.817 184.591Z" fill="#FFC3BD"/>
<path d="M185.372 181.408C185.623 180.937 191.34 184.252 191.34 184.252C191.34 184.252 193.131 189.756 196.247 192.357C199.364 194.958 196.336 196.077 192.394 194.118L182.639 189.255C179.876 187.848 182.779 186.33 185.372 181.408Z" fill="#396EB3"/>
<path d="M193.278 187.052C192.659 186.551 192.102 185.977 191.62 185.342C191.616 185.325 191.616 185.308 191.62 185.291C191.617 185.269 191.617 185.246 191.62 185.224C191.617 185.21 191.617 185.195 191.62 185.18C191.626 185.153 191.642 185.13 191.664 185.114C191.716 185.062 192.895 183.935 193.875 184.001C194.019 184.011 194.159 184.052 194.286 184.12C194.413 184.189 194.524 184.284 194.611 184.399C194.705 184.485 194.768 184.599 194.793 184.723C194.818 184.847 194.804 184.976 194.751 185.092C194.575 185.394 194.015 185.49 193.396 185.512C193.88 185.657 194.314 185.935 194.648 186.315C194.704 186.394 194.743 186.484 194.762 186.579C194.781 186.675 194.78 186.773 194.759 186.867C194.678 187.265 194.464 187.391 194.302 187.427C194.115 187.439 193.927 187.411 193.751 187.346C193.575 187.282 193.414 187.181 193.278 187.052ZM192.21 185.512C192.895 186.315 193.816 187.184 194.206 187.088C194.243 187.088 194.346 187.088 194.398 186.801C194.409 186.75 194.408 186.697 194.397 186.646C194.386 186.596 194.363 186.548 194.332 186.506C194.029 186.05 192.939 185.703 192.21 185.512ZM194.169 184.473C194.064 184.397 193.938 184.353 193.808 184.348C193.196 184.412 192.621 184.67 192.165 185.084C193.204 185.188 194.28 185.143 194.427 184.885C194.471 184.804 194.376 184.664 194.309 184.583C194.268 184.54 194.221 184.503 194.169 184.473Z" fill="#396EB3"/>
<path opacity="0.2" d="M192.689 178.785L188.062 176.169L189.506 170.275L194.891 171.999L192.689 178.785Z" fill="black"/>
<path d="M183.302 189.911H178.432L177.039 183.648L175.772 177.908L181.467 177.039L182.44 183.854L183.302 189.911Z" fill="#FFC3BD"/>
<path d="M176.826 189.719C176.826 189.181 183.457 189.601 183.457 189.601C183.457 189.601 187.516 193.727 191.458 194.655C195.4 195.584 193.197 197.949 188.791 197.949H177.865C174.718 197.949 176.693 195.281 176.826 189.719Z" fill="#396EB3"/>
<path d="M186.897 191.288C185.945 191.17 185.021 190.888 184.164 190.456L184.105 190.412V190.375C184.09 190.329 184.09 190.28 184.105 190.235C184.105 190.176 184.687 188.636 185.579 188.26C185.712 188.198 185.858 188.166 186.006 188.166C186.153 188.166 186.299 188.198 186.433 188.26C186.735 188.408 186.875 188.592 186.868 188.82C186.868 189.166 186.374 189.513 185.836 189.8C186.333 189.71 186.845 189.767 187.31 189.962C187.395 190.009 187.47 190.072 187.531 190.148C187.592 190.224 187.637 190.311 187.664 190.404C187.718 190.528 187.732 190.667 187.702 190.799C187.673 190.931 187.603 191.051 187.502 191.141C187.324 191.259 187.11 191.311 186.897 191.288ZM184.768 190.345C185.741 190.75 186.978 191.119 187.258 190.861C187.258 190.861 187.369 190.773 187.303 190.515C187.29 190.465 187.268 190.42 187.236 190.38C187.204 190.341 187.164 190.309 187.118 190.286C186.639 190.006 185.512 190.176 184.768 190.345ZM185.947 188.525C185.855 188.527 185.765 188.547 185.682 188.584C185.164 188.925 184.767 189.42 184.547 189.999C185.527 189.631 186.47 189.115 186.485 188.82C186.485 188.724 186.345 188.643 186.256 188.599C186.161 188.55 186.054 188.525 185.947 188.525Z" fill="#396EB3"/>
<path opacity="0.2" d="M182.455 183.994L177.054 183.773L175.78 177.967L181.475 177.068L182.455 183.994Z" fill="black"/>
<path d="M159.556 75.2895L171.514 73.3739L182.352 71.1636L185.299 88.8463C185.299 88.8463 200.557 110.95 204.256 126.157C207.955 141.364 194.081 176.641 194.081 176.641L187.708 173.819C187.708 173.819 192.129 139.89 192.025 135.816C191.959 133.164 183.258 120.933 177.172 112.688C176.995 114.759 178.97 135.396 178.97 135.396L183.265 180.634H175.234C147.62 94.8805 159.556 75.2895 159.556 75.2895Z" fill="#396EB3"/>
<path opacity="0.6" d="M175.234 180.605H183.236L178.94 135.367C178.94 135.367 176.98 114.589 177.142 112.659C178.343 114.287 179.648 116.063 180.966 117.898C186.323 125.346 191.944 133.65 192.018 135.779C192.121 139.861 187.701 173.79 187.701 173.79L194.074 176.612C194.074 176.612 207.947 141.32 204.249 126.12C200.55 110.92 185.291 88.817 185.291 88.817L182.344 71.1343L171.506 73.3446L159.548 75.2602C159.548 75.2602 147.62 94.8806 175.234 180.605Z" fill="white"/>
<path d="M187.347 170.938L196.756 174.18L194.656 177.407L186.927 174.644L187.347 170.938Z" fill="#396EB3"/>
<path d="M174.085 179.522L184.149 178.144L183.648 181.902L175.337 182.948L174.085 179.522Z" fill="#396EB3"/>
<path opacity="0.2" d="M177.143 112.659C178.344 114.288 179.648 116.063 180.966 117.898C178.859 106.979 176.376 96.3472 176.376 96.3472C176.062 101.796 176.319 107.264 177.143 112.659Z" fill="black"/>
<path d="M182.138 71.8564L160.322 73.3668C160.322 73.3668 160.027 61.6814 158.288 55.603C158.053 54.7852 157.795 53.9305 157.507 53.0169C157.102 51.7349 156.638 50.3572 156.107 48.8541C155.982 48.5005 155.665 47.6163 155.282 46.5922C154.979 45.7748 154.919 44.8872 155.108 44.0363C155.298 43.1854 155.729 42.4073 156.351 41.7958C156.956 41.1899 157.723 40.7727 158.561 40.5948C160.167 40.2412 161.751 39.9096 162.613 39.777C165.881 39.2585 169.179 38.946 172.486 38.8413C175.286 38.8413 178.38 39.0034 180.149 39.1287L181.681 39.2465C181.681 39.2465 182.374 39.4013 182.816 43.4609C183.214 47.2774 183.022 57.9755 182.138 71.8564Z" fill="#396EB3"/>
<path d="M171.771 43.5044C166.268 42.5098 164.72 40.0637 164.72 40.0637C168.404 36.925 165.781 31.0308 165.781 31.0308L172.412 32.6148C172.209 33.5344 172.073 34.4677 172.007 35.4072C171.749 39.4521 173.577 39.5848 173.577 39.5848C174.586 41.8025 171.771 43.5044 171.771 43.5044Z" fill="#FFC3BD"/>
<path opacity="0.2" d="M172.361 32.5787C172.157 33.4983 172.022 34.4316 171.956 35.3711C168.78 34.4649 165.759 30.9946 165.759 30.9946L172.361 32.5787Z" fill="black"/>
<path d="M171.874 13.6803C177.658 14.2034 179.242 17.4674 179.132 23.4721C178.992 30.9725 176.862 36.1226 169.767 33.8754C160.13 30.8325 162.259 12.8183 171.874 13.6803Z" fill="#FFC3BD"/>
<path d="M175.455 22.8091C175.842 23.7174 176.337 24.5758 176.929 25.3657C176.737 25.5883 176.488 25.7541 176.209 25.845C175.93 25.9359 175.631 25.9485 175.345 25.8814L175.455 22.8091Z" fill="#D58745"/>
<path d="M171.919 22.0204C171.919 22.492 171.602 22.8604 171.285 22.8456C170.968 22.8309 170.74 22.4183 170.769 21.9394C170.799 21.4605 171.086 21.0995 171.403 21.1142C171.72 21.1289 171.948 21.5415 171.919 22.0204Z" fill="#396EB3"/>
<path d="M171.263 21.129L172.331 20.79C172.331 20.79 171.771 21.63 171.263 21.129Z" fill="#396EB3"/>
<path d="M177.85 22.3154C177.813 22.7869 177.533 23.1553 177.216 23.1332C176.899 23.1111 176.664 22.7133 176.7 22.2343C176.737 21.7554 177.01 21.387 177.334 21.4091C177.658 21.4313 177.879 21.8365 177.85 22.3154Z" fill="#396EB3"/>
<path d="M177.194 21.4014L178.262 21.0625C178.262 21.0625 177.666 21.9245 177.194 21.4014Z" fill="#396EB3"/>
<path d="M169.627 18.9336C169.559 18.9317 169.494 18.9056 169.443 18.8599C169.395 18.808 169.367 18.7395 169.367 18.6683C169.367 18.5972 169.395 18.5287 169.443 18.4768C169.828 18.1422 170.285 17.9016 170.779 17.7737C171.272 17.6459 171.788 17.6343 172.287 17.74C172.322 17.7477 172.354 17.7622 172.383 17.7825C172.412 17.8028 172.436 17.8285 172.455 17.8583C172.474 17.8881 172.486 17.9212 172.492 17.9559C172.498 17.9906 172.498 18.0262 172.49 18.0605C172.482 18.0948 172.468 18.1273 172.447 18.1561C172.427 18.1849 172.401 18.2094 172.372 18.2282C172.342 18.247 172.309 18.2598 172.274 18.2658C172.239 18.2718 172.204 18.2709 172.169 18.2631C171.761 18.1761 171.338 18.1825 170.932 18.282C170.526 18.3816 170.148 18.5716 169.826 18.8378C169.802 18.8671 169.772 18.8908 169.737 18.9074C169.703 18.9239 169.666 18.9328 169.627 18.9336Z" fill="#396EB3"/>
<path d="M178.712 19.1033C178.651 19.1018 178.591 19.0812 178.542 19.0444C178.275 18.791 177.954 18.6022 177.603 18.4924C177.252 18.3825 176.88 18.3546 176.516 18.4108C176.448 18.4267 176.376 18.4156 176.316 18.3799C176.255 18.3443 176.211 18.2867 176.192 18.2192C176.174 18.1518 176.183 18.08 176.217 18.0193C176.252 17.9586 176.309 17.9139 176.376 17.895C176.822 17.8171 177.28 17.8431 177.715 17.9708C178.149 18.0986 178.548 18.3248 178.881 18.6318C178.908 18.6539 178.931 18.6812 178.948 18.7122C178.964 18.7431 178.975 18.777 178.978 18.812C178.982 18.8469 178.978 18.8822 178.968 18.9158C178.957 18.9494 178.941 18.9805 178.918 19.0075C178.893 19.0382 178.862 19.0628 178.826 19.0794C178.79 19.096 178.751 19.1042 178.712 19.1033Z" fill="#396EB3"/>
<path d="M164.669 22.8749C164.669 22.8749 167.8 18.3584 167.719 14.6524C167.719 14.6524 179.611 10.9685 179.132 22.6907C179.132 22.6907 181.18 12.4568 171.256 11.3295C161.331 10.2023 160.057 24.7684 164.809 29.5648C164.809 29.5574 162.724 25.6894 164.669 22.8749Z" fill="#4E4D4D" fill-opacity="0.8"/>
<path d="M165.501 24.1719C165.504 23.8381 165.441 23.507 165.316 23.1975C165.191 22.888 165.007 22.6061 164.773 22.368C164.539 22.1299 164.26 21.9403 163.953 21.8098C163.645 21.6794 163.315 21.6108 162.982 21.6079C161.169 21.6447 159.983 25.2476 164.367 26.537C164.993 26.7212 165.413 26.1244 165.501 24.1719Z" fill="#FFC3BD"/>
<path d="M174.785 28.5779C174.079 28.6128 173.38 28.4156 172.796 28.0165C172.212 27.6175 171.775 27.0384 171.55 26.3676C171.54 26.3351 171.536 26.301 171.539 26.2671C171.542 26.2333 171.552 26.2003 171.568 26.1702C171.584 26.1401 171.605 26.1134 171.631 26.0916C171.657 26.0698 171.687 26.0534 171.72 26.0434C171.753 26.0331 171.788 26.0296 171.823 26.033C171.858 26.0363 171.892 26.0465 171.922 26.0629C171.953 26.0794 171.98 26.1017 172.003 26.1287C172.025 26.1557 172.041 26.1868 172.052 26.2202C172.248 26.803 172.634 27.303 173.148 27.6397C173.663 27.9765 174.276 28.1304 174.888 28.0769C174.957 28.0728 175.025 28.096 175.078 28.1414C175.13 28.1868 175.162 28.2509 175.168 28.32C175.172 28.3892 175.149 28.4572 175.104 28.5095C175.058 28.5619 174.994 28.5943 174.925 28.6L174.785 28.5779Z" fill="#396EB3"/>
<path d="M179.043 21.0555C178.988 21.0551 178.933 21.0371 178.888 21.004C178.843 20.9709 178.81 20.9245 178.793 20.8713C176.538 13.5036 167.903 14.6529 167.822 14.6677C167.788 14.6725 167.754 14.6706 167.721 14.6621C167.688 14.6536 167.656 14.6387 167.629 14.6182C167.602 14.5977 167.579 14.572 167.561 14.5425C167.544 14.5131 167.532 14.4805 167.528 14.4466C167.523 14.4128 167.525 14.3783 167.533 14.3451C167.542 14.312 167.556 14.2809 167.577 14.2535C167.598 14.2261 167.623 14.2031 167.653 14.1857C167.682 14.1682 167.715 14.1568 167.749 14.1519C167.837 14.1519 176.907 12.9362 179.294 20.7166C179.304 20.7495 179.307 20.7841 179.304 20.8183C179.301 20.8526 179.29 20.8858 179.274 20.916C179.257 20.9462 179.235 20.9728 179.208 20.9942C179.181 21.0157 179.15 21.0315 179.117 21.0408L179.043 21.0555Z" fill="#4E4D4D"/>
<path d="M194.022 33.4994C194.022 33.4994 197.065 33.4478 197.168 33.9783C197.271 34.5088 197.072 38.9663 196.667 39.5926C196.225 40.1586 195.718 40.6705 195.157 41.1177L195.452 49.016L193.639 49.6496L191.996 42.4218C191.996 42.4218 190.132 40.602 190.677 38.2958C191.222 35.9897 194.022 33.4994 194.022 33.4994Z" fill="#FFC3BD"/>
<path opacity="0.1" d="M194.022 33.4994C194.022 33.4994 197.065 33.4478 197.168 33.9783C197.271 34.5088 197.072 38.9663 196.667 39.5926C196.225 40.1586 195.718 40.6705 195.157 41.1177L195.452 49.016L193.639 49.6496L191.996 42.4218C191.996 42.4218 190.132 40.602 190.677 38.2958C191.222 35.9897 194.022 33.4994 194.022 33.4994Z" fill="black"/>
<path d="M188.857 37.3894C188.855 37.4555 188.867 37.5213 188.892 37.5825C188.917 37.6437 188.955 37.6988 189.003 37.7441C189.051 37.7895 189.108 37.824 189.171 37.8454C189.233 37.8669 189.3 37.8747 189.366 37.8683L194.523 37.4705C194.667 37.4566 194.801 37.3918 194.901 37.2877C195.001 37.1837 195.06 37.0472 195.068 36.9031L195.437 26.5882C195.441 26.5177 195.43 26.4471 195.406 26.3807C195.382 26.3143 195.345 26.2534 195.297 26.2018C195.249 26.1502 195.19 26.1088 195.126 26.0803C195.061 26.0517 194.992 26.0365 194.921 26.0356L189.763 26.4335C189.614 26.4633 189.478 26.5428 189.379 26.6592C189.28 26.7755 189.224 26.9219 189.218 27.0745L188.857 37.3894Z" fill="#396EB3"/>
<path opacity="0.5" d="M189.793 26.9719L189.454 37.3752C189.444 37.4368 189.449 37.4998 189.468 37.5592C189.487 37.6187 189.52 37.6728 189.563 37.7172C189.607 37.7617 189.661 37.7952 189.72 37.8152C189.779 37.8351 189.842 37.8409 189.904 37.832L194.287 37.4931C194.582 37.4931 195.113 37.2647 195.12 36.97L195.488 26.5372C195.488 26.2425 194.98 26.0509 194.685 26.073L190.265 26.4119C190.129 26.4268 190.005 26.4933 189.917 26.5975C189.829 26.7018 189.785 26.8359 189.793 26.9719Z" fill="white"/>
<path d="M183.597 45.2144L185.564 40.6243C185.564 40.6243 186.205 34.4722 186.514 33.8091C186.824 33.146 191.834 33.3965 192.408 33.3596C192.983 33.3228 192.851 39.4602 192.327 40.1085C191.804 40.7569 189.756 41.2726 189.756 41.2726L186.61 47.3732L183.597 45.2144Z" fill="#FFC3BD"/>
<path d="M178.056 42.7242C177.526 44.8314 175.485 46.4523 171.263 46.4081C168.869 46.3673 166.549 45.5733 164.632 44.1388C163.106 43.0176 161.785 41.6418 160.727 40.0718C161.339 39.9613 161.957 39.8655 162.576 39.7697C165.844 39.2512 169.142 38.9387 172.449 38.834C174.195 38.834 176.045 38.8856 177.607 38.9666C178.154 40.1388 178.312 41.4558 178.056 42.7242Z" fill="#FFC3BD"/>
<path d="M160.263 71.716L159.349 75.7094L182.897 74.4716L182.219 70.5298L160.263 71.716Z" fill="#396EB3"/>
<path d="M173.643 75.1273C173.425 75.1284 173.214 75.0482 173.052 74.9025C172.89 74.7567 172.788 74.5558 172.766 74.3389L172.493 71.7897C172.472 71.5478 172.546 71.3071 172.7 71.1192C172.776 71.028 172.871 70.9535 172.977 70.9003C173.083 70.847 173.2 70.8162 173.319 70.8098L176.752 70.574C176.983 70.5576 177.211 70.6326 177.388 70.7828C177.564 70.933 177.674 71.1464 177.695 71.3771L177.931 73.8895C177.952 74.1256 177.881 74.3607 177.732 74.5452C177.656 74.6355 177.563 74.7095 177.458 74.7627C177.353 74.8159 177.238 74.8472 177.12 74.8547L173.716 75.1273H173.643ZM173.23 71.7086L173.495 74.2579C173.501 74.2963 173.521 74.3312 173.551 74.3558C173.581 74.3803 173.619 74.3927 173.658 74.3905L177.061 74.1253C177.082 74.1227 177.101 74.1162 177.119 74.1061C177.137 74.096 177.152 74.0824 177.165 74.0663C177.191 74.0357 177.204 73.996 177.201 73.9558L176.958 71.4434C176.957 71.4243 176.953 71.4056 176.944 71.3885C176.936 71.3713 176.924 71.3561 176.91 71.3437C176.895 71.3313 176.878 71.3219 176.86 71.3163C176.842 71.3106 176.823 71.3087 176.804 71.3108L173.37 71.5465C173.349 71.5457 173.328 71.5499 173.309 71.5589C173.289 71.5678 173.273 71.5813 173.26 71.5981C173.252 71.6156 173.248 71.6344 173.248 71.6534C173.248 71.6724 173.252 71.6912 173.26 71.7086H173.23Z" fill="white"/>
<path d="M176.929 72.976H175.661C175.564 72.976 175.47 72.9372 175.401 72.8681C175.332 72.799 175.293 72.7054 175.293 72.6076C175.295 72.5105 175.334 72.4179 175.403 72.3492C175.472 72.2806 175.564 72.2411 175.661 72.2393H176.929C177.026 72.2411 177.118 72.2806 177.187 72.3492C177.256 72.4179 177.295 72.5105 177.297 72.6076C177.297 72.7054 177.258 72.799 177.189 72.8681C177.12 72.9372 177.026 72.976 176.929 72.976Z" fill="white"/>
<path opacity="0.2" d="M163.512 54.8148C161.427 55.5516 159.091 54.2622 157.507 53.017C157.102 51.7351 156.638 50.3573 156.107 48.8542C155.982 48.5006 155.665 47.6165 155.282 46.5923C154.979 45.7749 154.919 44.8873 155.108 44.0364C155.298 43.1855 155.729 42.4074 156.351 41.7959C160.359 45.5756 166.297 53.8643 163.512 54.8148Z" fill="black"/>
<path d="M156.299 41.2945C156.717 40.9576 157.2 40.7103 157.718 40.5681C158.235 40.4258 158.777 40.3916 159.308 40.4676C159.84 40.5437 160.35 40.7283 160.807 41.01C161.264 41.2916 161.658 41.6644 161.965 42.105C165.199 46.7393 170.629 54.446 171.285 54.8218C172.221 55.367 179.279 48.8612 185.571 40.6093L189.425 42.0829C189.425 42.0829 179.471 62.5506 172.405 62.639C167.108 62.7053 159.143 51.9631 155.525 46.5625C154.967 45.7483 154.737 44.7536 154.88 43.777C155.024 42.8004 155.53 41.9139 156.299 41.2945Z" fill="#FFC3BD"/>
<path opacity="0.2" d="M163.512 78.981C163.512 78.981 161.714 83.8658 157.271 85.612V87.3655C157.271 87.3655 163.785 84.5952 164.698 79.9977L163.512 78.981Z" fill="black"/>
<path opacity="0.2" d="M158.458 104.709L164.698 103.538L166.187 116.078L160.211 116.947L159.349 108.783L164.742 108.017L164.433 104.923L164.345 107.671L158.281 108.643L158.458 104.709Z" fill="black"/>
</svg>
