<svg width="24" height="24" viewBox="0 0 24 24" fill="none" xmlns="http://www.w3.org/2000/svg">
<path d="M16.375 11.375H7.625C6.93464 11.375 6.375 11.9346 6.375 12.625V17C6.375 17.6904 6.93464 18.25 7.625 18.25H16.375C17.0654 18.25 17.625 17.6904 17.625 17V12.625C17.625 11.9346 17.0654 11.375 16.375 11.375Z" stroke="#EF5B5B" stroke-linecap="round" stroke-linejoin="round"/>
<path d="M8.875 11.375V8.875C8.875 8.0462 9.20424 7.25134 9.79029 6.66529C10.3763 6.07924 11.1712 5.75 12 5.75C12.8288 5.75 13.6237 6.07924 14.2097 6.66529C14.7958 7.25134 15.125 8.0462 15.125 8.875V11.375" stroke="#EF5B5B" stroke-linecap="round" stroke-linejoin="round"/>
</svg>
