<svg width="174" height="179" viewBox="0 0 174 179" fill="none" xmlns="http://www.w3.org/2000/svg">
<path d="M144.921 11.3229C143.734 10.1354 141.448 5.63624 143.639 3.51769C145.83 1.39913 147.781 3.32256 147.932 4.35396C148.082 5.38536 147.681 14.077 144.921 11.3229Z" fill="#263238"/>
<path d="M144.419 173.164L139.441 173.208L138.086 161.701L143.059 161.657L144.419 173.164Z" fill="#FF8B7B"/>
<path d="M139.435 172.634L144.865 172.584C144.966 172.585 145.063 172.619 145.143 172.679C145.223 172.739 145.282 172.823 145.311 172.918L146.627 177.328C146.662 177.431 146.672 177.541 146.655 177.648C146.639 177.755 146.597 177.857 146.533 177.944C146.469 178.032 146.385 178.103 146.288 178.151C146.191 178.199 146.083 178.223 145.975 178.22C144.018 178.22 141.175 178.115 138.727 178.137C135.85 178.137 134.568 178.338 131.19 178.371C129.149 178.371 128.402 176.33 129.266 176.141C133.096 175.254 135.075 175.137 138.281 173.036C138.619 172.792 139.02 172.653 139.435 172.634Z" fill="#263238"/>
<path opacity="0.2" d="M138.086 161.707L138.789 167.639L143.762 167.594L143.065 161.662L138.086 161.707Z" fill="black"/>
<path d="M137.378 173.52C137.915 173.511 138.449 173.445 138.973 173.325C138.997 173.322 139.02 173.31 139.037 173.292C139.055 173.273 139.065 173.25 139.067 173.225C139.07 173.201 139.064 173.177 139.052 173.156C139.04 173.135 139.022 173.118 139 173.108C138.766 172.991 136.676 171.993 136.101 172.344C136.048 172.378 136.005 172.425 135.976 172.481C135.946 172.537 135.932 172.599 135.934 172.662C135.933 172.769 135.956 172.875 136.003 172.972C136.049 173.069 136.117 173.153 136.202 173.219C136.55 173.446 136.964 173.551 137.378 173.52ZM138.571 173.164C137.495 173.353 136.676 173.314 136.341 173.047C136.283 173.001 136.237 172.943 136.207 172.876C136.177 172.809 136.164 172.735 136.168 172.662C136.165 172.639 136.169 172.616 136.178 172.595C136.188 172.574 136.204 172.557 136.224 172.545C136.536 172.355 137.718 172.801 138.571 173.164Z" fill="#396EB3"/>
<path d="M138.95 173.359C138.977 173.357 139.002 173.347 139.023 173.331C139.04 173.318 139.052 173.301 139.059 173.281C139.066 173.261 139.067 173.24 139.062 173.219C139.062 173.13 138.672 170.989 137.49 171.123C137.177 171.157 137.088 171.318 137.071 171.441C136.988 171.999 138.265 173.08 138.9 173.348L138.95 173.359ZM137.59 171.352C138.304 171.352 138.66 172.517 138.783 173.024C138.125 172.656 137.255 171.809 137.306 171.474C137.306 171.474 137.306 171.38 137.517 171.357L137.59 171.352Z" fill="#396EB3"/>
<path d="M140.901 36.4505L140.389 37.008L139.909 37.4819C139.591 37.7941 139.262 38.0896 138.933 38.3795C138.279 38.9667 137.61 39.5242 136.926 40.052C135.546 41.1489 134.093 42.151 132.578 43.0515C131.814 43.503 131.028 43.9323 130.231 44.3393C129.433 44.7463 128.592 45.0975 127.744 45.4543C126.006 46.1476 124.196 46.6432 122.347 46.9317L121.935 46.9931C121.667 47.0276 121.397 47.0443 121.126 47.0432C120.506 47.0374 119.891 46.9164 119.315 46.6864C118.743 46.4568 118.219 46.1221 117.77 45.6996C117.413 45.3589 117.102 44.9728 116.845 44.5512C116.489 43.9394 116.22 43.2807 116.047 42.5943C115.912 42.0627 115.814 41.5225 115.752 40.9775C115.651 40.0352 115.623 39.0864 115.668 38.1398C115.707 37.2366 115.78 36.3669 115.88 35.5139C116.092 33.8023 116.393 32.1688 116.761 30.4962C117.129 28.8237 117.547 27.2794 118.088 25.6626L121.751 26.3874C121.617 29.5206 121.467 32.7319 121.567 35.7647C121.585 37.1731 121.734 38.5766 122.013 39.9572C122.068 40.2123 122.144 40.4622 122.241 40.7043C122.32 40.8939 122.414 41.011 122.409 40.9608C122.376 40.8759 122.325 40.7995 122.258 40.7378C122.106 40.591 121.929 40.4738 121.734 40.3921C121.534 40.3079 121.321 40.257 121.104 40.2416C121.004 40.2416 120.959 40.2416 120.898 40.2416H120.959L121.076 40.2081C122.397 39.8689 123.682 39.4021 124.912 38.8143C126.199 38.1931 127.445 37.4892 128.642 36.7069C129.852 35.9041 131.045 35.0344 132.193 34.1145C132.751 33.6573 133.336 33.1779 133.866 32.6928L134.68 31.9569L135.07 31.5945L135.41 31.2712L140.901 36.4505Z" fill="#FF8B7B"/>
<path d="M143.851 34.4817C143.661 29.2244 139.346 27.3957 133.938 30.9805C131.554 32.4921 129.259 34.1395 127.064 35.9145L130.56 47.1429C130.56 47.1429 137.25 45.0188 141.119 40.8485C143.723 38.0164 143.918 36.2714 143.851 34.4817Z" fill="#263238"/>
<path opacity="0.2" d="M137.267 36.7227C137.267 36.7227 134.038 41.3389 132.896 46.245C134.483 45.5683 136.012 44.7627 137.467 43.8365L137.267 36.7227Z" fill="black"/>
<path d="M121.567 28.0534L123.44 23.8219L118.138 22.272C118.138 22.272 117.229 24.2957 117.748 27.7691L121.567 28.0534Z" fill="#FF8B7B"/>
<path d="M124.003 18.8604L119.393 19.4123L118.138 22.2723L123.44 23.8222L124.003 18.8604Z" fill="#FF8B7B"/>
<path d="M137.3 72.5935C137.3 72.5935 133.877 101.283 133.498 116.637C133.107 132.588 136.235 164.762 136.235 164.762L145.217 164.572C145.217 164.572 146.298 130.129 147.603 114.346C149.019 97.1408 152.587 72.2812 152.587 72.2812L137.3 72.5935Z" fill="#396EB3"/>
<path opacity="0.6" d="M137.3 72.5935C137.3 72.5935 133.877 101.283 133.498 116.637C133.107 132.588 136.235 164.762 136.235 164.762L145.217 164.572C145.217 164.572 146.298 130.129 147.603 114.346C149.019 97.1408 152.587 72.2812 152.587 72.2812L137.3 72.5935Z" fill="white"/>
<path opacity="0.2" d="M147.999 80.7168C143.985 89.5646 145.061 109.328 147.341 117.803C147.424 116.571 147.514 115.405 147.603 114.329C148.534 102.989 150.39 88.3325 151.567 79.652C150.474 78.0686 149.253 77.946 147.999 80.7168Z" fill="black"/>
<path d="M146.32 164.957L135.761 165.169L134.981 161.662L146.192 161.634L146.32 164.957Z" fill="#396EB3"/>
<path d="M166.603 173.164L161.63 173.208L160.275 161.701L165.248 161.657L166.603 173.164Z" fill="#FF8B7B"/>
<path d="M161.619 172.634L167.054 172.584C167.154 172.586 167.251 172.62 167.331 172.68C167.411 172.74 167.47 172.823 167.5 172.918L168.816 177.328C168.85 177.431 168.859 177.54 168.842 177.647C168.825 177.754 168.783 177.855 168.719 177.942C168.655 178.029 168.572 178.1 168.475 178.148C168.379 178.197 168.272 178.221 168.164 178.22C166.201 178.22 163.364 178.115 160.916 178.137C158.039 178.137 156.752 178.338 153.379 178.371C151.338 178.371 150.591 176.33 151.455 176.141C155.28 175.254 157.259 175.137 160.47 173.036C160.806 172.792 161.205 172.653 161.619 172.634Z" fill="#263238"/>
<path opacity="0.2" d="M160.275 161.707L160.972 167.639L165.951 167.594L165.254 161.662L160.275 161.707Z" fill="black"/>
<path d="M159.567 173.52C160.104 173.51 160.638 173.445 161.162 173.325C161.186 173.321 161.208 173.309 161.224 173.291C161.24 173.273 161.25 173.249 161.251 173.225C161.254 173.201 161.25 173.177 161.239 173.156C161.228 173.135 161.211 173.118 161.189 173.108C160.95 172.991 158.859 171.993 158.29 172.344C158.236 172.377 158.192 172.424 158.163 172.48C158.134 172.536 158.12 172.599 158.123 172.662C158.122 172.769 158.145 172.874 158.19 172.971C158.236 173.067 158.302 173.152 158.385 173.219C158.736 173.445 159.151 173.551 159.567 173.52ZM160.76 173.164C159.684 173.353 158.865 173.314 158.53 173.047C158.473 173.001 158.426 172.942 158.395 172.875C158.364 172.808 158.349 172.735 158.352 172.662C158.348 172.639 158.352 172.616 158.362 172.595C158.372 172.574 158.388 172.557 158.407 172.545C158.72 172.355 159.89 172.801 160.76 173.164Z" fill="#396EB3"/>
<path d="M161.134 173.359C161.151 173.358 161.168 173.354 161.183 173.346C161.198 173.339 161.212 173.328 161.223 173.315C161.234 173.302 161.242 173.287 161.247 173.27C161.252 173.254 161.253 173.236 161.251 173.219C161.251 173.13 160.86 170.989 159.679 171.123C159.366 171.157 159.277 171.318 159.255 171.441C159.177 171.999 160.453 173.08 161.089 173.348L161.134 173.359ZM159.779 171.352C160.487 171.352 160.849 172.517 160.972 173.024C160.314 172.656 159.439 171.809 159.489 171.474C159.489 171.474 159.489 171.38 159.701 171.357L159.779 171.352Z" fill="#396EB3"/>
<path d="M146.064 72.4045C146.064 72.4045 148.545 103.274 150.357 118.505C152.236 134.35 158.424 164.745 158.424 164.745L167.406 164.556C167.406 164.556 164.942 130.046 163.988 114.235C162.946 96.9797 162.678 72.0254 162.678 72.0254L146.064 72.4045Z" fill="#396EB3"/>
<path opacity="0.6" d="M146.064 72.4045C146.064 72.4045 148.545 103.274 150.357 118.505C152.236 134.35 158.424 164.745 158.424 164.745L167.406 164.556C167.406 164.556 164.942 130.046 163.988 114.235C162.946 96.9797 162.678 72.0254 162.678 72.0254L146.064 72.4045Z" fill="white"/>
<path d="M168.51 164.957L157.945 165.169L157.17 161.662L168.381 161.634L168.51 164.957Z" fill="#396EB3"/>
<path d="M136.681 29.6041C136.681 29.6041 133.007 43.2409 137.3 72.594C145.317 72.4212 158.781 72.109 162.678 72.0365C162.778 67.9499 159.762 47.9129 163.291 28.595C160.752 28.1566 158.185 27.9069 155.609 27.8479C151.838 27.7103 148.063 27.7922 144.302 28.0933C141.727 28.398 139.178 28.9032 136.681 29.6041Z" fill="#263238"/>
<path opacity="0.2" d="M161.753 42.3427L157.599 38.9028C157.872 41.59 160.303 48.1743 161.585 51.5082C161.563 48.5868 161.591 45.5038 161.753 42.3427Z" fill="black"/>
<path d="M146.895 37.5093L142.362 46.4797C142.266 46.6681 142.233 46.8819 142.267 47.0905C142.3 47.2991 142.399 47.4917 142.549 47.6405C142.699 47.7893 142.893 47.8866 143.101 47.9184C143.31 47.9503 143.524 47.915 143.711 47.8177L146.672 46.1898C146.833 46.1032 147.015 46.0636 147.197 46.0755C147.379 46.0873 147.555 46.1501 147.703 46.2567L150.619 48.3585C150.786 48.4804 150.989 48.5451 151.196 48.543C151.403 48.541 151.604 48.4724 151.769 48.3474C151.934 48.2223 152.054 48.0475 152.112 47.8487C152.17 47.6499 152.163 47.4377 152.091 47.2435L148.684 37.6654C148.625 37.4832 148.514 37.3225 148.364 37.2032C148.214 37.084 148.032 37.0115 147.841 36.9949C147.65 36.9783 147.459 37.0182 147.291 37.1096C147.122 37.2011 146.985 37.3401 146.895 37.5093Z" fill="white"/>
<path d="M154.215 15.1143C153.579 18.7715 153.011 25.4506 155.609 27.82C155.609 27.82 154.851 31.1316 147.932 32.2801C143.282 30.786 144.302 28.0876 144.302 28.0876C148.339 27.0283 148.166 24.0233 147.402 21.2135L154.215 15.1143Z" fill="#FF8B7B"/>
<path opacity="0.2" d="M151.438 17.5947L147.402 21.1851C147.59 21.8397 147.721 22.5094 147.792 23.1866C149.342 22.9301 151.433 21.1795 151.561 19.5572C151.64 18.901 151.599 18.2359 151.438 17.5947Z" fill="black"/>
<path d="M156.428 10.6149C155.085 15.365 154.544 18.2139 151.578 20.1596C147.118 23.0809 141.649 19.6021 141.543 14.5343C141.442 9.98495 143.65 2.977 148.79 2.08498C149.919 1.88469 151.081 1.97599 152.165 2.35025C153.249 2.72451 154.219 3.36932 154.984 4.22359C155.749 5.07786 156.283 6.11329 156.536 7.23178C156.789 8.35027 156.752 9.51476 156.428 10.6149Z" fill="#FF8B7B"/>
<path d="M153.568 13.5253C152.944 12.0089 152.492 7.01356 155.096 5.78703C157.699 4.5605 160.403 7.55435 159.718 8.97043C158.664 11.167 155.018 17.0377 153.568 13.5253Z" fill="#263238"/>
<path d="M155.124 7.54839C154.483 5.87585 146.839 4.92808 145.769 3.12731C144.498 0.986459 149.71 0.729999 153.295 1.81715C156.445 2.77607 158.547 3.70155 158.179 6.04311C157.973 7.36999 155.124 7.54839 155.124 7.54839Z" fill="#263238"/>
<path d="M156.785 5.82601C156.785 5.82601 158.458 6.28317 159.372 5.05664C159.082 6.27202 157.66 7.49855 156.785 5.82601Z" fill="#263238"/>
<path d="M149.13 0.668857C146.833 -1.11519 143.706 0.981066 144.001 3.3059C144.297 5.63073 152.041 7.39805 152.041 7.39805C152.041 7.39805 152.18 3.03829 149.13 0.668857Z" fill="#263238"/>
<path d="M144.007 3.31676C144.358 4.9447 145.546 6.22141 147.948 7.16918C146.558 6.1408 145.504 4.72226 144.921 3.09375L144.007 3.31676Z" fill="#263238"/>
<path d="M148.829 10.3752C148.746 10.771 148.472 11.0442 148.216 10.9885C147.96 10.9327 147.82 10.5647 147.904 10.1745C147.987 9.78422 148.266 9.51104 148.523 9.56679C148.779 9.62254 148.918 10.0072 148.829 10.3752Z" fill="#263238"/>
<path d="M144.403 9.4161C144.313 9.80636 144.04 10.0795 143.784 10.0238C143.527 9.96804 143.388 9.60565 143.472 9.2154C143.555 8.82514 143.834 8.55195 144.09 8.60213C144.347 8.65231 144.486 9.02584 144.403 9.4161Z" fill="#263238"/>
<path d="M145.769 9.91797C145.041 11.0147 144.165 12.0053 143.165 12.8616C143.723 13.6589 144.966 13.6199 144.966 13.6199L145.769 9.91797Z" fill="#FF5652"/>
<path d="M145.869 14.9525C146.392 15.0825 146.94 15.084 147.464 14.9568C147.988 14.8297 148.474 14.5776 148.88 14.2222C148.891 14.2113 148.899 14.1982 148.906 14.1839C148.912 14.1695 148.915 14.1541 148.915 14.1385C148.915 14.123 148.912 14.1075 148.906 14.0932C148.899 14.0788 148.891 14.0658 148.88 14.0549C148.857 14.0337 148.827 14.022 148.796 14.022C148.765 14.022 148.735 14.0337 148.712 14.0549C148.332 14.3753 147.881 14.6021 147.397 14.7173C146.913 14.8325 146.409 14.8329 145.925 14.7183C145.894 14.7117 145.861 14.7176 145.835 14.7349C145.808 14.7521 145.789 14.7793 145.783 14.8103C145.776 14.8414 145.782 14.8738 145.799 14.9005C145.816 14.9271 145.843 14.9458 145.875 14.9525H145.869Z" fill="#263238"/>
<path d="M150.474 9.23813C150.517 9.24668 150.561 9.2434 150.602 9.22864C150.643 9.21387 150.679 9.18818 150.707 9.15434C150.734 9.1205 150.752 9.07978 150.758 9.03658C150.764 8.99338 150.759 8.94934 150.742 8.90919C150.591 8.56582 150.361 8.26329 150.07 8.02672C149.779 7.79014 149.436 7.62632 149.069 7.54886C149.007 7.54084 148.944 7.55734 148.894 7.59482C148.844 7.63231 148.811 7.68783 148.801 7.74956C148.797 7.77995 148.798 7.81097 148.805 7.84087C148.812 7.87076 148.825 7.89894 148.844 7.92379C148.862 7.94864 148.885 7.96968 148.911 7.9857C148.937 8.00172 148.966 8.01242 148.997 8.01717C149.286 8.08074 149.556 8.21259 149.784 8.40172C150.012 8.59084 150.191 8.83175 150.307 9.10432C150.322 9.13806 150.346 9.16772 150.375 9.19094C150.404 9.21416 150.438 9.23032 150.474 9.23813Z" fill="#263238"/>
<path d="M142.786 7.47036C142.83 7.48246 142.876 7.48094 142.919 7.46599C142.962 7.45105 142.999 7.4234 143.026 7.38674C143.202 7.14991 143.432 6.9579 143.696 6.82619C143.961 6.69448 144.252 6.62677 144.548 6.62852C144.61 6.63443 144.672 6.61543 144.72 6.5757C144.768 6.53597 144.798 6.47876 144.804 6.41666C144.81 6.35456 144.791 6.29265 144.751 6.24455C144.712 6.19646 144.654 6.16612 144.592 6.1602C144.218 6.1491 143.847 6.22846 143.51 6.39152C143.173 6.55459 142.881 6.79654 142.658 7.09683C142.638 7.12067 142.623 7.14829 142.614 7.178C142.606 7.20771 142.603 7.2389 142.607 7.26966C142.61 7.30043 142.62 7.33013 142.636 7.35696C142.651 7.38379 142.672 7.4072 142.697 7.42576C142.722 7.4481 142.753 7.46347 142.786 7.47036Z" fill="#263238"/>
<path d="M164.507 32.397C165.521 34.1699 166.369 35.887 167.25 37.6543C168.13 39.4216 168.922 41.2001 169.675 43.0176C170.427 44.8351 171.158 46.6805 171.793 48.5927C172.454 50.4998 173.012 52.4409 173.466 54.4076L173.806 55.9296C173.955 56.6444 174.018 57.3742 173.995 58.1039C173.948 59.4598 173.648 60.7948 173.109 62.04C172.162 64.1382 170.816 66.0319 169.145 67.6151C167.655 69.0541 166.031 70.3478 164.295 71.4787C163.453 72.0362 162.583 72.5491 161.708 73.0397C160.833 73.5303 159.963 73.9819 158.987 74.4112L157.136 71.1721C157.811 70.6145 158.552 70.057 159.244 69.4549C159.935 68.8528 160.61 68.2395 161.279 67.6263C162.57 66.4278 163.769 65.1325 164.863 63.7515C165.837 62.5673 166.592 61.2194 167.093 59.7709C167.266 59.2312 167.334 58.6636 167.294 58.0984C167.278 57.8711 167.235 57.6465 167.166 57.4293L166.787 56.1805C165.66 52.7166 164.32 49.3259 162.773 46.0282C162.009 44.3556 161.195 42.6831 160.381 41.0106C159.567 39.338 158.708 37.6655 157.878 36.0766L164.507 32.397Z" fill="#FF8B7B"/>
<path d="M163.481 28.6225C168.13 29.626 171.364 41.7575 171.364 41.7575L163.052 49.3007C160.409 46.3604 158.33 42.9586 156.919 39.2654C154.717 33.1941 158.508 27.5409 163.481 28.6225Z" fill="#263238"/>
<path d="M158.145 70.5981L152.799 70.6539L156.144 76.0451C156.144 76.0451 159.952 75.1029 160.292 73.1906L158.145 70.5981Z" fill="#FF8B7B"/>
<path d="M149.47 73.8367L152.42 78.163L156.116 76.0445L152.799 70.6533L149.47 73.8367Z" fill="#FF8B7B"/>
<path d="M157.889 14.9635C157.295 16.0564 156.293 16.8701 155.101 17.227C153.518 17.6897 152.71 16.2792 153.133 14.7795C153.518 13.4303 154.806 11.5627 156.389 11.7578C157.973 11.9529 158.597 13.6199 157.889 14.9635Z" fill="#FF8B7B"/>
<path d="M110.502 107.208L104.558 107.639L104.599 108.195L110.543 107.764L110.502 107.208Z" fill="#EF5B5B"/>
<path d="M115.844 106.822L112.924 107.034L112.965 107.59L115.884 107.378L115.844 106.822Z" fill="#EF5B5B"/>
<path d="M141.493 41.3782L43.0584 48.4753C41.0097 48.6351 39.1067 49.5964 37.7623 51.1506C36.418 52.7047 35.7407 54.7263 35.8776 56.7767L39.2227 103.173C39.3811 105.225 40.3433 107.131 41.9001 108.477C43.4568 109.823 45.4821 110.499 47.5352 110.359L53.1103 109.958C53.5154 109.929 53.9154 110.061 54.2227 110.327C54.53 110.592 54.7195 110.969 54.7494 111.374L55.3738 119.971C55.384 120.137 55.4438 120.297 55.5454 120.429C55.647 120.562 55.7858 120.66 55.9441 120.713C56.1023 120.766 56.2727 120.77 56.4334 120.725C56.594 120.68 56.7376 120.589 56.8457 120.461L66.1784 109.674C66.5709 109.222 67.1259 108.943 67.7228 108.899L145.953 103.262C148.003 103.104 149.907 102.143 151.253 100.589C152.598 99.0344 153.276 97.012 153.139 94.9608L149.794 48.5645C149.636 46.5148 148.675 44.6104 147.121 43.2649C145.567 41.9193 143.544 41.2414 141.493 41.3782Z" fill="#EF5B5B"/>
<path d="M57.4363 69.7732L62.755 69.3885L63.1899 75.4096L68.9992 74.9915L68.5643 68.9703L73.9053 68.5801L75.1486 85.785L69.8076 86.1696L69.3058 79.2119L63.4965 79.6356L63.9983 86.5933L58.6852 86.978L57.4363 69.7732Z" fill="white"/>
<path opacity="0.2" d="M43.058 48.476C41.0094 48.6359 39.1064 49.5972 37.762 51.1513C36.4176 52.7055 35.7404 54.7271 35.8773 56.7774L39.2224 103.174C39.3808 105.225 40.343 107.132 41.8998 108.477C43.4565 109.823 45.4818 110.5 47.5349 110.36L48.3544 110.299C49.7161 110.2 51.0072 109.655 52.0274 108.748C53.0476 107.841 53.7397 106.622 53.9965 105.281L65.2081 46.876L43.058 48.476Z" fill="black"/>
<path d="M91.8348 79.5067L82.2567 80.198C82.3301 80.8184 82.5907 81.4018 83.0037 81.8706C83.2407 82.1198 83.532 82.3109 83.8551 82.4289C84.1781 82.5469 84.524 82.5886 84.8658 82.5507C85.3354 82.5172 85.7884 82.3636 86.1816 82.1047C86.4893 81.8717 86.7519 81.5846 86.9565 81.2573L91.6954 81.3521C91.1797 82.5205 90.3425 83.5182 89.2813 84.2288C88.3076 84.8458 86.8692 85.2175 84.9662 85.3439C83.6357 85.4987 82.2875 85.3559 81.019 84.9257C80.0021 84.4988 79.1293 83.7886 78.5046 82.8797C77.7884 81.8449 77.377 80.6299 77.3171 79.3729C77.2176 78.4999 77.3021 77.6158 77.5652 76.7775C77.8283 75.9392 78.2642 75.1653 78.8447 74.5058C80.0043 73.2124 81.6769 72.4857 83.8623 72.3259C85.3091 72.154 86.7761 72.3259 88.144 72.8277C89.1914 73.2751 90.0739 74.0369 90.6696 75.0076C91.3516 76.2132 91.734 77.565 91.7846 78.9492L91.8348 79.5067ZM86.8171 77.5665C86.7493 76.8415 86.4367 76.1612 85.9307 75.6376C85.6758 75.4414 85.3834 75.2997 85.0715 75.2213C84.7596 75.1429 84.4349 75.1294 84.1176 75.1817C83.8003 75.2339 83.4971 75.3509 83.2268 75.5252C82.9566 75.6995 82.725 75.9275 82.5466 76.1951C82.249 76.7196 82.0987 77.3148 82.1117 77.9178L86.8171 77.5665Z" fill="white"/>
<path d="M93.3122 67.1806L98.1012 66.835L99.3445 84.0343L94.5554 84.3799L93.3122 67.1806Z" fill="white"/>
<path d="M101.313 66.6005L106.102 66.2549L107.345 83.4542L102.562 83.7998L101.313 66.6005Z" fill="white"/>
<path d="M109.363 77.0814C109.273 76.2088 109.367 75.327 109.64 74.4932C109.912 73.6595 110.358 72.8925 110.946 72.2422C112.14 70.9153 113.829 70.172 116.014 70.0121C118.504 69.8337 120.441 70.421 121.824 71.7739C122.972 72.985 123.635 74.5758 123.688 76.244C123.74 77.9122 123.178 79.5415 122.108 80.8223C120.926 82.1381 119.213 82.8814 116.968 83.0524C115.224 83.2616 113.462 82.8468 111.995 81.8816C111.214 81.34 110.57 80.6244 110.114 79.7914C109.657 78.9584 109.4 78.0307 109.363 77.0814ZM114.152 76.7246C114.143 77.6046 114.445 78.4596 115.005 79.1386C115.231 79.3698 115.504 79.5492 115.806 79.6642C116.108 79.7793 116.432 79.8274 116.754 79.8051C117.077 79.7828 117.39 79.6908 117.674 79.5353C117.957 79.3797 118.203 79.1645 118.395 78.9045C118.845 78.1284 119.015 77.2207 118.874 76.3343C118.88 75.472 118.582 74.6352 118.032 73.9705C117.818 73.735 117.552 73.5521 117.255 73.4361C116.958 73.32 116.638 73.274 116.321 73.3015C115.99 73.3169 115.667 73.4084 115.377 73.5689C115.086 73.7294 114.837 73.9546 114.648 74.2269C114.199 74.9769 114.031 75.8622 114.174 76.7246H114.152Z" fill="white"/>
<path d="M125.196 64.8724L130.298 64.5044L130.582 68.407L130.164 76.3516L127.008 76.5801L125.475 68.775L125.196 64.8724ZM126.312 77.8513L131.073 77.5056L131.379 81.7204L126.613 82.0605L126.312 77.8513Z" fill="white"/>
<path d="M41.6976 33.1998C41.6726 34.0159 41.7155 34.8326 41.8258 35.6417C36.7739 37.3287 31.3863 37.7555 26.1318 36.8849C26.384 35.9313 26.5372 34.9542 26.589 33.9691C26.4132 34.961 26.0681 35.9153 25.5687 36.7901C24.5763 36.6006 24.0188 36.4389 24.0188 36.4389C24.0188 36.4389 25.0335 30.953 23.2048 26.9612C21.3762 22.9694 22.2905 20.7393 23.6732 20.1093C26.2377 12.2261 35.8771 13.4693 39.1386 16.6695C43.2753 20.7282 43.2976 32.1628 44.0336 34.7775C43.4259 35.0395 42.8293 35.2793 42.2328 35.4911C41.934 34.7606 41.7534 33.9871 41.6976 33.1998Z" fill="#263238"/>
<path d="M45.6838 45.4707L46.1856 47.0596C46.3696 47.6171 46.5536 48.1746 46.7431 48.7043C47.1166 49.8193 47.5069 50.9343 47.925 52.0048C48.3432 53.0752 48.7446 54.2014 49.1794 55.2941L49.8262 56.9666L49.9878 57.3792L50.0269 57.474C49.9579 57.4137 49.8786 57.3664 49.7927 57.3346C49.6701 57.29 49.6199 57.3346 49.6979 57.3346C49.8322 57.334 49.9656 57.3134 50.0938 57.2733C50.5297 57.1351 50.9487 56.9481 51.3426 56.7158C52.2934 56.1617 53.2027 55.5394 54.0633 54.8537C54.9664 54.1512 55.8529 53.3985 56.7226 52.6236C57.5923 51.8487 58.4676 51.0403 59.3095 50.2486L61.021 51.6981C60.3074 52.724 59.5548 53.6606 58.791 54.6139C58.0272 55.5673 57.1686 56.4593 56.2877 57.3457C55.381 58.2712 54.3941 59.1145 53.3385 59.8657C52.7345 60.2888 52.0857 60.644 51.4039 60.925C50.9712 61.0985 50.5176 61.2147 50.0547 61.2706C49.4264 61.3489 48.7886 61.2624 48.2038 61.0198C47.5663 60.7481 47.0233 60.2943 46.6428 59.7152C46.5591 59.587 46.4811 59.4587 46.4198 59.3416L46.2692 59.0406L46.0685 58.6336C45.8065 58.0761 45.511 57.5186 45.2824 56.9945C44.7751 55.8795 44.2678 54.7645 43.805 53.6494C43.3423 52.5344 42.8907 51.3859 42.4614 50.2374C42.2607 49.6799 42.06 49.0722 41.8704 48.4869C41.6809 47.9015 41.4969 47.3272 41.3129 46.6415L45.6838 45.4707Z" fill="#FFC3BD"/>
<path d="M44.3625 40.5201C46.2859 41.0107 47.6295 48.9162 47.6295 48.9162L42.3332 52.5178C42.3332 52.5178 37.2598 44.5397 38.7372 42.4268C40.2759 40.2302 41.5582 39.8064 44.3625 40.5201Z" fill="#396EB3"/>
<path d="M44.3625 40.5201C46.2859 41.0107 47.6295 48.9162 47.6295 48.9162L42.3332 52.5178C42.3332 52.5178 37.2598 44.5397 38.7372 42.4268C40.2759 40.2302 41.5582 39.8064 44.3625 40.5201Z" fill="#396EB3"/>
<path opacity="0.4" d="M44.3625 40.5201C46.2859 41.0107 47.6295 48.9162 47.6295 48.9162L42.3332 52.5178C42.3332 52.5178 37.2598 44.5397 38.7372 42.4268C40.2759 40.2302 41.5582 39.8064 44.3625 40.5201Z" fill="white"/>
<path opacity="0.3" d="M44.1898 42.2876L45.6672 50.2545L42.6901 52.2727L44.1898 42.2876Z" fill="black"/>
<path d="M59.2202 50.4381L60.9875 46.1787L63.1674 50.4381C63.1674 50.4381 61.7513 52.5567 59.8837 52.0382L59.2202 50.4381Z" fill="#FFC3BD"/>
<path d="M62.9333 45.7383L65.732 46.8645L63.1674 50.4381L60.982 46.1787L62.9333 45.7383Z" fill="#FFC3BD"/>
<path d="M33.965 173.61H38.6314L38.9436 162.811H34.2772L33.965 173.61Z" fill="#FFC3BD"/>
<path d="M2.67715 159.7L6.96443 161.529L12.5786 152.185L8.28574 150.356L2.67715 159.7Z" fill="#FFC3BD"/>
<path d="M7.78956 160.893L3.32945 158.15C3.25319 158.101 3.16151 158.082 3.072 158.096C2.98249 158.11 2.90144 158.157 2.84441 158.228L0.162775 161.445C0.0960569 161.529 0.0481323 161.626 0.0222223 161.731C-0.00368766 161.835 -0.00698244 161.943 0.0125584 162.049C0.0320992 162.155 0.0740241 162.255 0.135514 162.343C0.197004 162.431 0.276636 162.505 0.369056 162.56C1.94124 163.491 2.74406 163.859 4.70651 165.063C5.91632 165.81 7.60001 167.014 9.26697 168.04C10.9339 169.066 12.0545 167.483 11.4357 166.897C8.73176 164.316 8.80981 163.089 8.30247 161.562C8.21815 161.284 8.0359 161.046 7.78956 160.893Z" fill="#263238"/>
<path d="M38.7873 173.069H33.5523C33.4622 173.068 33.3747 173.099 33.3061 173.158C33.2374 173.216 33.1922 173.298 33.1787 173.387L32.5822 177.535C32.5676 177.641 32.5764 177.749 32.6078 177.852C32.6392 177.955 32.6925 178.049 32.7641 178.129C32.8356 178.209 32.9237 178.273 33.0223 178.316C33.1209 178.358 33.2275 178.379 33.3348 178.376C35.1635 178.349 36.0444 178.237 38.3525 178.237C39.7686 178.237 42.7011 178.388 44.6579 178.388C46.6148 178.388 46.7152 176.453 45.9012 176.275C42.2495 175.488 40.8111 174.407 39.579 173.375C39.3608 173.181 39.0796 173.072 38.7873 173.069Z" fill="#263238"/>
<path opacity="0.2" d="M38.9378 162.816L38.7817 168.38H34.1153L34.277 162.816H38.9378Z" fill="black"/>
<path opacity="0.2" d="M8.28565 150.361L12.5729 152.184L9.67943 157.001L5.39215 155.173L8.28565 150.361Z" fill="black"/>
<path d="M44.3625 40.5198C44.3625 40.5198 46.5925 41.3004 42.1324 68.6576H23.1769C23.4947 60.9527 23.5059 56.2027 19.8318 40.386C22.4824 39.8383 25.1693 39.4842 27.8712 39.3268C30.735 39.1202 33.6099 39.1202 36.4736 39.3268C40.1755 39.6613 44.3625 40.5198 44.3625 40.5198Z" fill="#396EB3"/>
<path opacity="0.4" d="M44.3625 40.5198C44.3625 40.5198 46.5925 41.3004 42.1324 68.6576H23.1769C23.4947 60.9527 23.5059 56.2027 19.8318 40.386C22.4824 39.8383 25.1693 39.4842 27.8712 39.3268C30.735 39.1202 33.6099 39.1202 36.4736 39.3268C40.1755 39.6613 44.3625 40.5198 44.3625 40.5198Z" fill="white"/>
<path d="M27.8825 39.3207C30.7464 39.1197 33.621 39.1197 36.4849 39.3207C36.9476 39.3653 37.4215 39.4155 37.8898 39.4712C38.0848 39.7642 38.2098 40.0981 38.2552 40.447C38.3006 40.796 38.2653 41.1507 38.1519 41.4839C37.5442 42.9836 35.3643 43.1564 33.781 43.1564C27.9215 43.1564 26.9291 39.7333 26.8901 39.5883L26.8344 39.382L27.8825 39.3207Z" fill="white"/>
<path d="M28.7355 29.6431C29.293 32.4306 29.8227 37.4817 27.8825 39.3271C27.8825 39.3271 28.6408 42.1146 33.781 42.1146C39.4342 42.1146 36.485 39.3271 36.485 39.3271C33.3963 38.5912 33.48 36.2998 34.0152 34.1534L28.7355 29.6431Z" fill="#FFC3BD"/>
<path d="M29.2985 27.6753C28.6351 29.8663 29.555 35.0512 30.9209 37.0583C28.2281 35.5139 27.3193 30.8085 27.3193 30.8085L29.2985 27.6753Z" fill="#263238"/>
<path opacity="0.2" d="M30.8873 31.4824L34.0149 34.1473C33.8777 34.6469 33.7881 35.1584 33.7473 35.6749C32.571 35.5021 30.9597 34.2087 30.8259 32.9766C30.7567 32.4789 30.7774 31.9728 30.8873 31.4824Z" fill="black"/>
<path d="M26.182 24.7032C27.2636 29.2023 27.6204 31.1313 30.3299 33.0659C34.4053 35.9705 39.6961 33.6624 39.9805 28.9291C40.2369 24.6697 38.4306 18.0297 33.6638 17.0039C32.6136 16.772 31.5215 16.8124 30.4912 17.1212C29.4609 17.43 28.5266 17.9969 27.7771 18.7683C27.0275 19.5396 26.4875 20.4898 26.2084 21.5285C25.9292 22.5672 25.9201 23.66 26.182 24.7032Z" fill="#FFC3BD"/>
<path d="M42.1381 68.6576C42.1381 68.6576 45.8121 104.573 45.4831 118.789C45.1654 133.575 39.7463 167.293 39.7463 167.293H33.4464C33.4464 167.293 34.4444 134.428 33.8869 119.904C33.2792 104.071 28.2504 68.6465 28.2504 68.6465L42.1381 68.6576Z" fill="#396EB3"/>
<path opacity="0.4" d="M42.1381 68.6576C42.1381 68.6576 45.8121 104.573 45.4831 118.789C45.1654 133.575 39.7463 167.293 39.7463 167.293H33.4464C33.4464 167.293 34.4444 134.428 33.8869 119.904C33.2792 104.071 28.2504 68.6465 28.2504 68.6465L42.1381 68.6576Z" fill="black"/>
<path d="M32.9223 167.527H40.3149L40.8613 165.169L32.5766 164.879L32.9223 167.527Z" fill="#396EB3"/>
<path opacity="0.2" d="M33.9706 77.5947C38.6202 86.9498 34.9016 104.015 33.257 110.365C32.4151 100.832 30.9935 89.1798 29.884 80.6109C30.5865 75.7939 31.8242 73.2796 33.9706 77.5947Z" fill="black"/>
<path d="M37.1371 68.6577C37.1371 68.6577 32.8443 106.011 29.6051 117.981C25.7638 132.214 11.1403 156.449 11.1403 156.449L5.29193 153.963C5.29193 153.963 14.3404 126.444 17.2841 118.945C23.5561 102.945 18.1872 79.0999 23.1993 68.6577H37.1371Z" fill="#396EB3"/>
<path opacity="0.4" d="M37.1371 68.6577C37.1371 68.6577 32.8443 106.011 29.6051 117.981C25.7638 132.214 11.1403 156.449 11.1403 156.449L5.29193 153.963C5.29193 153.963 14.3404 126.444 17.2841 118.945C23.5561 102.945 18.1872 79.0999 23.1993 68.6577H37.1371Z" fill="black"/>
<path d="M4.4837 153.98L11.7425 157.068L13.4876 155.117L5.11369 151.097L4.4837 153.98Z" fill="#396EB3"/>
<path d="M33.3348 24.7642C33.4017 25.1322 33.647 25.3998 33.8923 25.3552C34.1376 25.3106 34.277 24.9761 34.2101 24.6081C34.1432 24.2402 33.8979 23.9726 33.6526 24.0116C33.4073 24.0506 33.24 24.3907 33.3348 24.7642Z" fill="#263238"/>
<path d="M37.4939 24.0284C37.5553 24.3964 37.8062 24.664 38.0515 24.6194C38.2968 24.5748 38.4417 24.2402 38.3748 23.8723C38.3079 23.5043 38.0626 23.2367 37.8173 23.2758C37.572 23.3148 37.427 23.6549 37.4939 24.0284Z" fill="#263238"/>
<path d="M37.7115 23.3205L38.5533 22.9023C38.5533 22.9023 38.2188 23.6773 37.7115 23.3205Z" fill="#263238"/>
<path d="M36.4958 24.8594C36.9745 25.6462 37.5598 26.3629 38.2353 26.9891C38.0698 27.1566 37.87 27.2862 37.6495 27.3689C37.4291 27.4517 37.1934 27.4857 36.9586 27.4685L36.4958 24.8594Z" fill="#ED847E"/>
<path d="M35.2805 29.2136C35.4918 29.2132 35.7025 29.1946 35.9105 29.1579C35.9265 29.1572 35.942 29.1532 35.9563 29.146C35.9705 29.1388 35.983 29.1287 35.993 29.1163C36.003 29.1038 36.0102 29.0894 36.0141 29.074C36.018 29.0585 36.0186 29.0424 36.0158 29.0268C36.013 29.0111 36.0068 28.9962 35.9978 28.9831C35.9887 28.97 35.977 28.9589 35.9633 28.9508C35.9496 28.9426 35.9344 28.9374 35.9185 28.9357C35.9027 28.9339 35.8867 28.9355 35.8715 28.9404C35.4124 29.0319 34.9382 29.0134 34.4876 28.8865C34.037 28.7596 33.6229 28.5278 33.2791 28.2101C33.2582 28.1897 33.2302 28.1782 33.201 28.1782C33.1718 28.1782 33.1438 28.1897 33.123 28.2101C33.1121 28.22 33.1035 28.2321 33.0976 28.2455C33.0917 28.2589 33.0887 28.2735 33.0887 28.2881C33.0887 28.3028 33.0917 28.3173 33.0976 28.3308C33.1035 28.3442 33.1121 28.3563 33.123 28.3662C33.7049 28.9181 34.4786 29.222 35.2805 29.2136Z" fill="#263238"/>
<path d="M27.7596 22.0665C27.8816 23.2521 28.0677 24.4302 28.3172 25.5956C28.3172 25.5956 31.1047 22.0665 31.5675 20.1766C31.4569 20.9207 31.241 21.6453 30.9263 22.3286C30.9263 22.3286 34.6784 21.509 35.0463 19.0337C35.04 20.1419 34.9167 21.2463 34.6784 22.3286C34.6784 22.3286 38.2576 20.9236 37.9287 18.5486C37.5998 16.1736 32.1027 15.2537 29.566 16.0565C27.0293 16.8594 24.5484 19.463 25.2954 23.0422C26.0425 26.6214 27.4753 27.965 27.4753 27.965C27.4753 27.965 26.4439 24.3579 27.7596 22.0665Z" fill="#263238"/>
<path d="M25.9868 28.0931C26.331 28.919 26.9886 29.5746 27.8155 29.9162C28.9305 30.3622 29.5939 29.4089 29.3988 28.305C29.226 27.3071 28.4399 25.8798 27.2858 25.9021C27.0333 25.9133 26.7875 25.9872 26.5707 26.1172C26.3539 26.2471 26.1729 26.429 26.044 26.6464C25.9151 26.8639 25.8423 27.11 25.8324 27.3626C25.8224 27.6151 25.8755 27.8662 25.9868 28.0931Z" fill="#FFC3BD"/>
<path d="M28.4342 20.3491C27.8767 22.5792 29.0363 27.7083 30.497 29.6429C27.7094 28.2324 26.5944 23.5715 26.5944 23.5715L28.4342 20.3491Z" fill="#263238"/>
<path d="M31.8072 23.4941C31.8358 23.4854 31.8624 23.4711 31.8854 23.4519C31.9084 23.4328 31.9273 23.4092 31.941 23.3826C32.0585 23.1311 32.2339 22.911 32.453 22.7405C32.672 22.5699 32.9283 22.4537 33.2009 22.4013C33.2586 22.393 33.3109 22.363 33.3472 22.3174C33.3834 22.2718 33.4009 22.2141 33.3961 22.156C33.3933 22.1269 33.3847 22.0986 33.3708 22.0729C33.3569 22.0471 33.3379 22.0245 33.315 22.0063C33.2921 21.988 33.2657 21.9746 33.2375 21.9668C33.2093 21.959 33.1798 21.957 33.1508 21.9609C32.8049 22.0209 32.4785 22.1631 32.1991 22.3756C31.9197 22.5881 31.6954 22.8646 31.5451 23.1819C31.5262 23.2206 31.5189 23.264 31.5241 23.3069C31.5294 23.3497 31.5469 23.3901 31.5747 23.4231C31.6024 23.4562 31.6391 23.4805 31.6804 23.493C31.7217 23.5056 31.7657 23.506 31.8072 23.4941Z" fill="#263238"/>
<path d="M39.0159 21.7651C39.0439 21.7663 39.0719 21.7614 39.0979 21.7508C39.1238 21.7403 39.1472 21.7242 39.1664 21.7038C39.2073 21.6621 39.2302 21.606 39.2302 21.5477C39.2302 21.4893 39.2073 21.4332 39.1664 21.3916C38.9287 21.1342 38.6337 20.9366 38.3054 20.8145C37.977 20.6925 37.6245 20.6495 37.2765 20.6891C37.2475 20.6944 37.2198 20.7055 37.1951 20.7216C37.1705 20.7377 37.1492 20.7585 37.1326 20.7829C37.116 20.8073 37.1044 20.8347 37.0985 20.8635C37.0926 20.8924 37.0924 20.9222 37.0981 20.9511C37.1102 21.0075 37.1437 21.057 37.1915 21.0892C37.2393 21.1214 37.2977 21.1339 37.3545 21.1239C37.629 21.0933 37.9068 21.1278 38.1655 21.2246C38.4241 21.3215 38.6563 21.478 38.8431 21.6815C38.8638 21.7074 38.8901 21.7284 38.92 21.7428C38.9499 21.7573 38.9827 21.7649 39.0159 21.7651Z" fill="#263238"/>
<path d="M22.1454 47.0037C21.3704 49.4512 20.6289 52.0213 19.9989 54.5524C19.3648 57.0511 18.901 59.5899 18.6107 62.1513L18.5661 62.6197C18.5661 62.7702 18.5661 62.8036 18.5661 62.9374C18.5723 63.2004 18.5928 63.4628 18.6275 63.7235C18.6985 64.3342 18.8008 64.9409 18.9341 65.541C19.1961 66.7843 19.4916 68.0666 19.8707 69.3377C20.2498 70.6088 20.5732 71.9023 20.9523 73.1845L22.0673 77.0314L19.9989 77.8844C18.7278 75.4536 17.6239 72.9783 16.5925 70.4248C16.0964 69.1426 15.6113 67.8491 15.2099 66.4832C15.0092 65.8031 14.8196 65.1062 14.6524 64.3479C14.573 63.9464 14.5171 63.5406 14.4851 63.1326C14.4851 62.9263 14.4851 62.6197 14.4851 62.4357V61.8782C14.5324 60.4575 14.6627 59.0409 14.8754 57.6355C15.0594 56.2417 15.3326 54.8814 15.628 53.5266C16.2081 50.8133 16.9529 48.1379 17.8581 45.5151L22.1454 47.0037Z" fill="#FFC3BD"/>
<path d="M19.8432 40.386C17.9476 40.9435 15.6674 47.4943 15.6674 47.4943L23.0266 52.7572C23.0266 52.7572 25.7138 47.3048 24.9165 44.8517C24.0858 42.2983 22.0119 39.7282 19.8432 40.386Z" fill="#396EB3"/>
<path opacity="0.4" d="M19.8432 40.386C17.9476 40.9435 15.6674 47.4943 15.6674 47.4943L23.0266 52.7572C23.0266 52.7572 25.7138 47.3048 24.9165 44.8517C24.0858 42.2983 22.0119 39.7282 19.8432 40.386Z" fill="white"/>
<path d="M9.6742 162.666C9.76485 162.634 9.84734 162.582 9.91577 162.515C9.98419 162.447 10.0369 162.366 10.07 162.275C10.1023 162.217 10.1192 162.152 10.1192 162.086C10.1192 162.019 10.1023 161.954 10.07 161.896C9.73552 161.406 8.04626 161.445 7.83998 161.45C7.8186 161.451 7.79777 161.457 7.77998 161.469C7.76218 161.481 7.74817 161.498 7.73962 161.517C7.72877 161.535 7.72302 161.555 7.72302 161.576C7.72302 161.596 7.72877 161.617 7.73962 161.634C8.18006 162.075 9.00518 162.794 9.585 162.682L9.6742 162.666ZM8.10758 161.651C8.78218 161.651 9.68535 161.746 9.86375 162.008C9.879 162.033 9.88706 162.062 9.88706 162.091C9.88706 162.121 9.879 162.15 9.86375 162.175C9.8391 162.242 9.79821 162.302 9.74472 162.35C9.69122 162.398 9.62678 162.431 9.55712 162.448C9.25049 162.526 8.71527 162.208 8.10758 161.651Z" fill="#396EB3"/>
<path d="M8.60349 161.534C9.1164 161.372 9.66277 161.088 9.77984 160.77C9.80893 160.688 9.80934 160.597 9.78103 160.515C9.75271 160.432 9.69731 160.361 9.62374 160.313C9.55881 160.259 9.48239 160.22 9.40029 160.2C9.31819 160.18 9.23255 160.178 9.14986 160.196C8.48641 160.313 7.77279 161.45 7.74492 161.501C7.73513 161.517 7.72998 161.537 7.72998 161.556C7.72998 161.576 7.73513 161.595 7.74492 161.612C7.75494 161.628 7.76883 161.642 7.78536 161.652C7.80188 161.661 7.82054 161.667 7.8397 161.668C8.09943 161.66 8.35672 161.615 8.60349 161.534ZM9.1164 160.419H9.18888C9.2413 160.408 9.29549 160.409 9.34754 160.421C9.3996 160.434 9.44823 160.458 9.48994 160.491C9.60144 160.581 9.59029 160.648 9.57356 160.698C9.46206 161.004 8.61464 161.372 8.05155 161.445C8.30773 161.016 8.67586 160.665 9.1164 160.43V160.419Z" fill="#396EB3"/>
<path d="M40.5379 173.883C40.9309 173.915 41.3234 173.815 41.653 173.598C41.7296 173.529 41.788 173.442 41.823 173.345C41.858 173.247 41.8685 173.143 41.8537 173.041C41.8493 172.98 41.8296 172.922 41.7964 172.871C41.7633 172.82 41.7177 172.779 41.6641 172.751C41.1066 172.439 39.2389 173.386 39.0271 173.492C39.0066 173.501 38.9891 173.515 38.9768 173.533C38.9645 173.552 38.9579 173.573 38.9579 173.595C38.9579 173.618 38.9645 173.639 38.9768 173.658C38.9891 173.676 39.0066 173.69 39.0271 173.699C39.5232 173.811 40.0294 173.872 40.5379 173.883ZM41.3686 172.918C41.4396 172.914 41.5105 172.927 41.5749 172.957C41.5969 172.969 41.6153 172.987 41.628 173.008C41.6408 173.03 41.6475 173.055 41.6474 173.08C41.6578 173.144 41.652 173.21 41.6306 173.271C41.6092 173.332 41.5728 173.387 41.5247 173.431C41.2404 173.687 40.471 173.732 39.4396 173.559C40.0417 173.238 40.694 173.021 41.3686 172.918Z" fill="#396EB3"/>
<path d="M39.0941 173.721H39.1387C39.6962 173.47 40.8112 172.467 40.7108 171.937C40.7108 171.809 40.5993 171.659 40.2927 171.625C40.1829 171.613 40.0718 171.623 39.9663 171.656C39.8608 171.689 39.7631 171.743 39.6795 171.815C39.1219 172.305 38.9881 173.56 38.9826 173.61C38.9819 173.629 38.9861 173.649 38.9948 173.666C39.0036 173.684 39.0166 173.699 39.0327 173.71C39.051 173.722 39.0729 173.726 39.0941 173.721ZM40.2091 171.831H40.276C40.4767 171.831 40.4934 171.937 40.4934 171.96C40.5492 172.277 39.8021 173.075 39.2334 173.415C39.278 172.885 39.4865 172.382 39.83 171.976C39.9322 171.883 40.0653 171.832 40.2035 171.831H40.2091Z" fill="#396EB3"/>
<path d="M22.9149 67.5484L22.4354 69.2209C22.3685 69.3491 22.5246 69.4829 22.7421 69.4829H42.255C42.4279 69.4829 42.5672 69.3993 42.5784 69.2934L42.7512 67.6208C42.7512 67.5037 42.6118 67.4034 42.4279 67.4034H23.2271C23.167 67.3987 23.1067 67.4096 23.052 67.435C22.9973 67.4604 22.9501 67.4994 22.9149 67.5484Z" fill="#263238"/>
<path d="M25.4906 69.6893H24.9722C24.8718 69.6893 24.7937 69.6391 24.7993 69.5722L25.039 67.3422C25.039 67.2808 25.1394 67.2251 25.2398 67.2251H25.7527C25.8586 67.2251 25.9311 67.2808 25.9255 67.3422L25.6858 69.5722C25.6858 69.6614 25.5966 69.6893 25.4906 69.6893Z" fill="#396EB3"/>
<path opacity="0.4" d="M25.4906 69.6893H24.9722C24.8718 69.6893 24.7937 69.6391 24.7993 69.5722L25.039 67.3422C25.039 67.2808 25.1394 67.2251 25.2398 67.2251H25.7527C25.8586 67.2251 25.9311 67.2808 25.9255 67.3422L25.6858 69.5722C25.6858 69.6614 25.5966 69.6893 25.4906 69.6893Z" fill="black"/>
<path d="M40.7831 69.6893H40.2702C40.1698 69.6893 40.0918 69.6391 40.0973 69.5722L40.3426 67.3422C40.3426 67.2808 40.4374 67.2251 40.5378 67.2251H41.0507C41.1566 67.2251 41.2346 67.2808 41.2235 67.3422L40.9838 69.5722C40.9782 69.6614 40.889 69.6893 40.7831 69.6893Z" fill="#396EB3"/>
<path opacity="0.4" d="M40.7831 69.6893H40.2702C40.1698 69.6893 40.0918 69.6391 40.0973 69.5722L40.3426 67.3422C40.3426 67.2808 40.4374 67.2251 40.5378 67.2251H41.0507C41.1566 67.2251 41.2346 67.2808 41.2235 67.3422L40.9838 69.5722C40.9782 69.6614 40.889 69.6893 40.7831 69.6893Z" fill="black"/>
<path d="M33.1397 69.6893H32.6268C32.5209 69.6893 32.4429 69.6391 32.454 69.5722L32.6937 67.3422C32.6937 67.2808 32.7885 67.2251 32.8944 67.2251H33.4074C33.5077 67.2251 33.5858 67.2808 33.5802 67.3422L33.3404 69.5722C33.3349 69.6614 33.2401 69.6893 33.1397 69.6893Z" fill="#396EB3"/>
<path opacity="0.4" d="M33.1397 69.6893H32.6268C32.5209 69.6893 32.4429 69.6391 32.454 69.5722L32.6937 67.3422C32.6937 67.2808 32.7885 67.2251 32.8944 67.2251H33.4074C33.5077 67.2251 33.5858 67.2808 33.5802 67.3422L33.3404 69.5722C33.3349 69.6614 33.2401 69.6893 33.1397 69.6893Z" fill="black"/>
<path d="M33.5244 24.0507L34.3662 23.6382C34.3662 23.6382 34.0317 24.4131 33.5244 24.0507Z" fill="#263238"/>
<path d="M21.9113 76.4019L25.9087 79.4682L21.2757 80.4884C21.2757 80.4884 19.3077 78.2584 19.9879 76.4186L21.9113 76.4019Z" fill="#FFC3BD"/>
<path d="M26.8902 83.2649L22.9653 83.9061L20.8244 79.8808L25.909 79.4683L26.8902 83.2649Z" fill="#FFC3BD"/>
</svg>
